# xmcd
#
# Track frame offsets:
#	150
#	16703
#	35168
#	53587
#	75949
#	94732
#	112337
#	128662
#	145607
#	169582
#	193023
#	209867
#
# Disc length: 3166 seconds
#
# Revision: 0
# Processed by: cddbd v1.5.2PL0 Copyright (c) Steve Scherf et al.
# Submitted via: EasyCDDAExtractor 8.2.3.1
#
DISCID=9e0c5c0c
DTITLE=Beverley Skeete - Hero Garden
DYEAR=2005
DGENRE=Blues
TTITLE0=Redemption Day
TTITLE1=Fool's Game
TTITLE2=Just For Love
TTITLE3=Hero Garden
TTITLE4=Old Fashioned Girl
TTITLE5=What You See
TTITLE6=Don't Darken My Door
TTITLE7=Billy
TTITLE8=Reflections
TTITLE9=In The Cold
TTITLE10=I Count My Blessings
TTITLE11=Red Beret
EXTD=
EXTT0=
EXTT1=
EXTT2=
EXTT3=
EXTT4=
EXTT5=
EXTT6=
EXTT7=
EXTT8=
EXTT9=
EXTT10=
EXTT11=
PLAYORDER=
